<svg width="508" height="468" viewBox="0 0 508 468" fill="none" xmlns="http://www.w3.org/2000/svg">
<g opacity="0.1">
<path d="M314.826 197.703C281.918 206.52 245.528 177.773 233.695 133.61C221.862 89.4511 239.002 46.3491 271.908 37.5318C304.806 28.7168 341.202 57.4729 353.035 101.633C364.868 145.796 347.724 188.888 314.826 197.703Z" fill="white"/>
<path d="M158.705 323.03C159.482 321.034 160.234 319.148 160.499 317.628C166.189 285.492 193.742 242.02 252.773 225.306L255.049 224.682C313.394 209.049 358.241 231.21 380.765 257.174C381.541 258.06 382.999 259.09 384.544 260.178C386.367 261.45 388.186 262.763 389.845 264.275C407.23 280.075 419.244 299.89 423.661 320.067C428.364 341.486 424.059 360.855 411.581 374.59C406.538 380.135 400.494 383.867 393.598 385.715C379.379 389.525 364.214 385.005 346.642 379.771C335.467 376.429 323.925 372.985 311.697 371.368C310.354 371.292 305.134 372.025 296.868 374.24C287.04 376.874 280.216 379.639 278.848 380.564C269.375 388.185 261.608 396.934 254.092 405.383C242.573 418.352 231.696 430.592 217.365 434.432C211.215 436.08 204.818 436.054 198.338 434.365C162.587 425.051 143.717 378.27 156.268 330.091C156.898 327.674 157.793 325.334 158.705 323.03Z" fill="white"/>
<path d="M187.939 231.702C155.048 240.516 118.651 211.77 106.818 167.607C94.9853 123.448 112.13 80.3446 145.022 71.5313C177.932 62.7129 214.325 91.4698 226.158 135.63C237.991 179.793 220.85 222.884 187.939 231.702Z" fill="white"/>
<path d="M78.9246 216.838C105.299 209.772 133.268 231.593 142.625 266.511C151.977 301.413 138.653 334.302 112.292 341.366C85.9324 348.429 57.9364 326.611 48.5844 291.709C39.2284 256.792 52.5527 223.905 78.9246 216.838Z" fill="white"/>
<path d="M366.527 206.516C357.171 171.599 370.495 138.712 396.858 131.648C423.221 124.584 451.207 146.402 460.563 181.319C469.915 216.221 456.588 249.111 430.225 256.175C403.861 263.24 375.879 241.418 366.527 206.516Z" fill="white"/>
</g>
</svg>
