<svg width="84" height="84" viewBox="0 0 84 84" fill="none" xmlns="http://www.w3.org/2000/svg">
<rect width="84" height="84" rx="18" fill="#F0F9F5"/>
<g clip-path="url(#clip0_73_310)">
<path d="M27.4167 42H23.25L42 23.25L60.75 42H56.5833" stroke="#43BA7F" stroke-width="2.5" stroke-linecap="round" stroke-linejoin="round"/>
<path d="M27.417 42V56.5833C27.417 57.6884 27.856 58.7482 28.6374 59.5296C29.4188 60.311 30.4786 60.75 31.5837 60.75H52.417C53.5221 60.75 54.5819 60.311 55.3633 59.5296C56.1447 58.7482 56.5837 57.6884 56.5837 56.5833V42" stroke="#43BA7F" stroke-width="2.5" stroke-linecap="round" stroke-linejoin="round"/>
<path d="M35.75 60.75V48.25C35.75 47.1449 36.189 46.0851 36.9704 45.3037C37.7518 44.5223 38.8116 44.0833 39.9167 44.0833H44.0833C45.1884 44.0833 46.2482 44.5223 47.0296 45.3037C47.811 46.0851 48.25 47.1449 48.25 48.25V60.75" stroke="#43BA7F" stroke-width="2.5" stroke-linecap="round" stroke-linejoin="round"/>
</g>
<defs>
<clipPath id="clip0_73_310">
<rect width="50" height="50" fill="white" transform="translate(17 17)"/>
</clipPath>
</defs>
</svg>
