<svg width="84" height="84" viewBox="0 0 84 84" fill="none" xmlns="http://www.w3.org/2000/svg">
<rect width="84" height="84" rx="18" fill="#F0F9F5"/>
<g clip-path="url(#clip0_73_287)">
<path d="M47.6251 45.125C45.3335 40.9583 44.623 39.9167 42.0001 39.9167C39.3772 39.9167 38.3835 41.4896 36.0918 45.6396C34.1293 49.1875 30.1626 49.4833 29.173 52.4958C28.971 53.0479 28.871 53.9062 28.8751 54.5C28.8751 56.95 30.5147 58.6667 32.6251 58.6667C35.248 58.6667 38.8751 56.5833 42.0001 56.5833C45.1251 56.5833 48.7522 58.6667 51.3751 58.6667C53.4855 58.6667 55.1251 56.9521 55.1251 54.5C55.1251 53.9062 55.023 53.0479 54.821 52.4958C53.8314 49.4729 49.5876 48.6729 47.6251 45.125Z" stroke="#43BA7F" stroke-width="2.5" stroke-linecap="round" stroke-linejoin="round"/>
<path d="M59.0584 33.8375C58.7907 33.7244 58.5031 33.6663 58.2125 33.6667H58.1813C56.65 33.6917 54.9313 35.2292 54.0292 37.5542C52.948 40.3354 53.4459 43.1792 55.15 43.9125C55.4188 44.0271 55.7063 44.0833 55.9959 44.0833C57.5355 44.0833 59.2771 42.5375 60.1855 40.1958C61.2605 37.4146 60.7521 34.5708 59.0584 33.8375Z" stroke="#43BA7F" stroke-width="2.5" stroke-linecap="round" stroke-linejoin="round"/>
<path d="M36.7378 35.75C36.8524 35.75 36.9649 35.75 37.0774 35.7271C39.044 35.4604 40.2711 32.9229 39.8274 30.0563C39.4044 27.3542 37.6461 25.3333 35.8024 25.3333C35.6878 25.3333 35.5753 25.3333 35.4628 25.3563C33.4961 25.6229 32.269 28.1604 32.7128 31.0271C33.1378 33.7208 34.8961 35.75 36.7399 35.75H36.7378Z" stroke="#43BA7F" stroke-width="2.5" stroke-linecap="round" stroke-linejoin="round"/>
<path d="M51.2838 31.0271C51.7296 28.1604 50.5025 25.6229 48.5338 25.3562C48.4219 25.3407 48.3092 25.3331 48.1963 25.3333C46.3525 25.3333 44.5963 27.3542 44.1754 30.0562C43.7296 32.9229 44.9567 35.4604 46.9254 35.7271C47.0379 35.7417 47.1504 35.75 47.2629 35.75C49.1067 35.75 50.8671 33.7208 51.2838 31.0271Z" stroke="#43BA7F" stroke-width="2.5" stroke-linecap="round" stroke-linejoin="round"/>
<path d="M28.8538 43.9125C30.5538 43.1792 31.0496 40.3312 29.9705 37.5542C29.0621 35.2125 27.3225 33.6667 25.785 33.6667C25.4934 33.6667 25.208 33.7229 24.9371 33.8375C23.2371 34.5708 22.7413 37.4187 23.8205 40.1958C24.7288 42.5375 26.4684 44.0833 28.0059 44.0833C28.2975 44.0833 28.583 44.0271 28.8538 43.9125Z" stroke="#43BA7F" stroke-width="2.5" stroke-linecap="round" stroke-linejoin="round"/>
</g>
<defs>
<clipPath id="clip0_73_287">
<rect width="50" height="50" fill="white" transform="translate(17 17)"/>
</clipPath>
</defs>
</svg>
