<svg width="508" height="468" viewBox="0 0 508 468" fill="none" xmlns="http://www.w3.org/2000/svg">
<g opacity="0.1">
<path d="M192.724 197.703C225.631 206.52 262.022 177.773 273.855 133.61C285.688 89.4508 268.548 46.3487 235.642 37.5315C202.744 28.7165 166.348 57.4726 154.515 101.633C142.681 145.796 159.826 188.888 192.724 197.703Z" fill="#FF7570"/>
<path d="M348.845 323.03C348.068 321.034 347.316 319.147 347.051 317.628C341.361 285.491 313.808 242.02 254.777 225.305L252.501 224.682C194.156 209.048 149.309 231.21 126.784 257.173C126.009 258.06 124.55 259.09 123.006 260.178C121.183 261.449 119.364 262.763 117.705 264.275C100.32 280.075 88.3059 299.889 83.8886 320.067C79.1862 341.486 83.4912 360.855 95.9691 374.59C101.012 380.134 107.056 383.867 113.952 385.715C128.171 389.525 143.336 385.004 160.907 379.771C172.083 376.429 183.625 372.984 195.853 371.368C197.195 371.292 202.416 372.025 210.681 374.24C220.51 376.873 227.334 379.639 228.702 380.564C238.174 388.185 245.942 396.934 253.458 405.383C264.977 418.352 275.854 430.591 290.185 434.431C296.335 436.079 302.731 436.053 309.212 434.365C344.963 425.051 363.833 378.27 351.282 330.091C350.652 327.673 349.756 325.334 348.845 323.03Z" fill="#FF7570"/>
<path d="M319.61 231.702C352.502 240.515 388.899 211.77 400.732 167.607C412.564 123.448 395.42 80.3442 362.528 71.5309C329.617 62.7125 293.224 91.4695 281.392 135.63C269.558 179.792 286.7 222.884 319.61 231.702Z" fill="#FF7570"/>
<path d="M428.625 216.838C402.251 209.771 374.281 231.592 364.925 266.511C355.573 301.413 368.897 334.302 395.258 341.366C421.617 348.428 449.613 326.611 458.965 291.709C468.321 256.791 454.997 223.904 428.625 216.838Z" fill="#FF7570"/>
<path d="M141.023 206.516C150.379 171.598 137.054 138.711 110.692 131.648C84.3286 124.584 56.3427 146.402 46.9867 181.319C37.6346 216.221 50.9616 249.111 77.325 256.175C103.688 263.239 131.671 241.418 141.023 206.516Z" fill="#FF7570"/>
</g>
</svg>
