<svg width="46" height="29" viewBox="0 0 46 29" fill="none" xmlns="http://www.w3.org/2000/svg">
<path d="M38.3795 1.69783C39.3095 2.47783 38.6494 3.22786 36.9994 3.22786C35.2294 3.22786 32.9795 7.30786 32.9795 10.4279C32.9795 11.9879 33.1895 12.0779 36.2795 12.0779C45.1294 12.0779 48.2794 19.6378 41.9494 25.6977C32.9494 34.3377 20.4094 23.0277 24.8494 10.2779C27.1294 3.82786 34.9895 -1.15217 38.3795 1.69783Z" fill="#9C61F1"/>
<path d="M2.01949 8.74781C4.50949 3.49781 12.6995 -1.09228 16.0296 0.857717C16.9596 1.39772 16.5996 1.90781 14.3195 3.34781C9.93949 6.13781 8.58949 10.7278 12.1595 10.7278C22.1795 10.7278 24.6396 24.8877 15.1296 27.8277C3.72949 31.3377 -3.65051 20.5978 2.01949 8.74781Z" fill="#9C61F1"/>
</svg>
